<svg xmlns="http://www.w3.org/2000/svg" xmlns:xlink="http://www.w3.org/1999/xlink" width="445" height="208" version="1.1" viewBox="0 0 445 208"><title>Effects Feature Icon</title><desc>Created with Sketch.</desc><g id="Website" fill="none" fill-rule="evenodd" stroke="none" stroke-width="1"><g id="Desktop-HD" transform="translate(-250.000000, -1198.000000)"><g id="Effects-Callout" transform="translate(250.000000, 1198.000000)"><g id="Effects-Feature-Icon"><rect id="Rectangle-4" width="445" height="208" x="0" y="0" fill="#2E1D32" rx="6"/><text id="@Effect()-search$-=" font-family="Helvetica" font-size="15" font-weight="normal" line-spacing="24"><tspan x="20" y="35" fill="#F9D4FF">@Effect</tspan> <tspan x="73.313" y="35" fill="#D3D2D2">() search$</tspan> <tspan x="140.835" y="35" fill="#FFF"> = </tspan> <tspan x="157.93" y="35" fill="#FFAD29">this</tspan> <tspan x="181.272" y="35" fill="#FFF">.actions$.</tspan> <tspan x="245.476" y="35" fill="#FFAD29">pipe</tspan> <tspan x="273.835" y="35" fill="#FFF">(</tspan> <tspan x="20" y="59" fill="#FFF"> </tspan> <tspan x="28.335" y="59" fill="#F9D4FF">ofType</tspan> <tspan x="73.372" y="59" fill="#BFBFBF">&lt;</tspan> <tspan x="82.131" y="59" fill="#FFF">SearchAction</tspan> <tspan x="171.348" y="59" fill="#D3D3D3">&gt;(BookActions.Types.</tspan> <tspan x="316.843" y="59" fill="#FFF">Search</tspan> <tspan x="364.37" y="59" fill="#BEBEBE">),</tspan> <tspan x="20" y="83" fill="#FFF"> </tspan> <tspan x="28.335" y="83" fill="#F9D4FF">map</tspan> <tspan x="57.515" y="83" fill="#FFF">(action </tspan> <tspan x="106.704" y="83" fill="#E8F">=&gt;</tspan> <tspan x="124.224" y="83" fill="#FFF"> action.query),</tspan> <tspan x="20" y="107" fill="#FFF"> </tspan> <tspan x="28.335" y="107" fill="#F9D4FF">exhaustMap</tspan> <tspan x="110.051" y="107" fill="#FFF">(query </tspan> <tspan x="156.736" y="107" fill="#E8F">=&gt;</tspan> <tspan x="20" y="131" fill="#FFF"> </tspan> <tspan x="36.67" y="131" fill="#FFAD29">this</tspan> <tspan x="60.012" y="131" fill="#FFF">.googleBooksService.</tspan> <tspan x="205.098" y="131" fill="#FFAD29">search</tspan> <tspan x="250.12" y="131" fill="#FFF">(query)</tspan> <tspan x="20" y="155" fill="#FFF"> ),</tspan> <tspan x="20" y="179" fill="#FFF">);</tspan></text></g></g></g></g></svg>